<?xml version="1.0" encoding="utf-8"?>
<!-- Generator: Adobe Illustrator 17.0.0, SVG Export Plug-In . SVG Version: 6.00 Build 0)  -->
<!DOCTYPE svg PUBLIC "-//W3C//DTD SVG 1.1//EN" "http://www.w3.org/Graphics/SVG/1.1/DTD/svg11.dtd">
<svg version="1.1" id="Layer_1" xmlns="http://www.w3.org/2000/svg" xmlns:xlink="http://www.w3.org/1999/xlink" x="0px" y="0px"
	 width="512px" height="512px" viewBox="0 0 512 512" enable-background="new 0 0 512 512" xml:space="preserve">
<g>
	<path d="M252.675,107.615c-0.662,1.085-0.91,1.085-1.286,1.085c-0.321,0-0.756-0.053-1.331-0.163
		c-4.411-0.842-9.115-1.536-13.982-2.064c-2.128-0.232-3.794-0.339-5.244-0.339c-2.724,0-6.143,0.329-8.427,2.898
		c-2.508,2.821-2.575,7.091-1.867,13.097c0.02,0.219,0.063,0.676,0.264,1.207c0.092,0.241,0.138,0.413,0.16,0.525
		c-0.179,0.131-0.574,0.368-1.411,0.706c-15.169,6.13-28.871,15.949-41.89,30.021c-11.16,12.063-16.95,24.585-17.702,38.283
		c-0.356,6.484,0.102,13.057,0.545,19.414c0.168,2.405,0.34,4.88,0.468,7.34c-0.294,0.317-0.609,0.649-0.935,0.989
		c-1.73,1.816-3.884,4.075-5.209,6.876c-6.036,12.75-0.417,35.004,11.135,44.095c1.139,0.896,2.198,2.599,2.466,3.962
		c5.189,26.431,15.26,47.275,30.792,63.721c16.036,16.98,36.151,26.332,56.637,26.332c20.292,0,39.565-8.728,55.736-25.241
		c16.094-16.436,26.552-37.768,31.972-65.216c0.256-1.294,0.486-2.127,0.685-2.481c12.154-8.204,14.426-20.574,15.064-32.725
		c0.496-9.427-2.65-16.422-9.355-20.833c4.137-16.181,4.109-29.705-0.061-42.384c-4.796-14.581-12.745-26.493-23.624-35.404
		c-9.518-7.795-20.2-15.664-32.656-24.057c-6.158-4.148-8.327-8.125-7.738-14.185c0.419-4.306-1.057-6.933-2.369-8.379
		c-2.486-2.74-6.622-3.576-10.971-2.159C263.708,95.41,257.025,100.484,252.675,107.615z M182.138,248.708
		c0.839,0,1.717-0.111,2.608-0.33c6.34-1.559,7.018-7.017,7.467-10.629l0.063-0.509c1.245-9.786,3.774-18.389,7.7-26.172
		c0.919,0.805,1.828,1.608,2.723,2.397c4.23,3.734,8.224,7.261,12.637,10.504c19.985,14.687,43.572,21.654,70.026,20.706
		c5.171-0.184,7.741-2.455,8.986-4.326c1.785-2.684,1.963-6.293,0.501-10.165c-0.314-0.83-0.616-1.676-0.911-2.527
		c0.179,0.103,0.361,0.204,0.544,0.304l3.971,2.159c8.577,4.666,17.446,9.49,26.353,13.933c2.743,1.367,4.831,1.977,6.773,1.977
		c3.931,0,6.452-2.521,8.42-5.356c-0.286,6.779-1.918,13.401-8.694,17.968c-3.167,2.135-5.233,6.391-5.875,9.662
		c-4.527,23.046-11.867,40.096-23.102,53.655c-10.838,13.08-22.749,20.701-36.414,23.296c-3.587,0.681-7.151,1.027-10.593,1.027
		c-14.746,0-28.53-6.409-40.97-19.048c-13.888-14.111-22.605-31.912-26.648-54.421c-1.338-7.447-4.269-12.491-9.503-16.356
		c-3.883-2.868-6.311-9.527-6.299-15.518c0.167,0.265,0.332,0.529,0.494,0.793C173.89,244.172,176.672,248.709,182.138,248.708z
		 M327.099,223.573c-0.231-0.099-0.483-0.215-0.685-0.309c-12.289-5.67-23.558-12.853-33.493-21.35
		c-0.256-0.219-0.499-0.474-0.745-0.725c-0.888-0.907-1.993-2.036-3.638-2.53c-0.456-0.137-0.926-0.291-1.405-0.446
		c-1.952-0.635-4.163-1.354-6.338-1.354c-0.981,0-1.899,0.148-2.732,0.441c-3.488,1.226-5.679,6.306-5.92,9.503
		c-0.371,4.911-0.306,9.74-0.237,14.852c0.012,0.928,0.024,1.863,0.034,2.806c-7.038-0.322-14.265-1.783-21.527-4.355
		c-16.968-6.009-30.993-15.993-41.685-29.675c-3.426-4.383-6.784-6.513-10.267-6.513c-3.938,0-7.335,2.634-10.385,8.052
		c-3.012,5.35-5.803,10.935-8.502,16.336c-0.068,0.136-0.136,0.272-0.205,0.409c-2.052-8.739-0.973-17.83,3.234-27.115
		c6.737-14.867,19.516-24.645,31.128-32.249c5.088-3.332,11.013-5.843,16.742-8.272l1.396-0.592
		c7.732-3.287,9.205-4.719,8.715-13.755c-0.008-0.145-0.014-0.292-0.018-0.444c0.4,0.08,0.799,0.16,1.197,0.238
		c3.697,0.737,7.19,1.434,10.662,2.285c2.313,0.568,3.891,0.81,5.275,0.81c5.22,0,7.349-3.669,9.239-7.758
		c0.555-1.201,1.253-2.373,1.988-3.518c0.257,0.375,0.512,0.748,0.765,1.119c2.637,3.865,5.128,7.516,8.233,10.769
		c2.3,2.409,5.154,3.999,7.915,5.536c1.352,0.753,2.631,1.465,3.806,2.249c11.023,7.351,22.484,15.693,31.643,26.854
		C334.67,181.179,337.002,204.762,327.099,223.573z"/>
	<path d="M480.98,472.166c-0.264-14.867-12.159-26.59-27.082-26.689c-10.803-0.072-21.607-0.054-32.414-0.038
		c-4.668,0.008-9.337,0.015-14.005,0.015h-2.564c-0.123-0.662-0.244-1.313-0.363-1.954c-0.567-3.052-1.103-5.935-1.589-8.787
		c-8.244-48.401-50.167-76.335-85.628-81.807c-0.674-0.104-1.391-0.157-2.133-0.157c-2.654,0-6.385,0.736-8.895,2.802
		c-12.585,10.355-26.502,15.909-42.546,16.98c-2.756,0.184-5.469,0.277-8.064,0.277c-19.858,0-35.885-5.434-48.997-16.612
		c-2.916-2.485-6.063-3.693-9.623-3.693c-1.176,0-2.405,0.127-3.759,0.388c-21.734,4.187-41.096,14.02-55.994,28.437
		c-16.776,16.233-27.174,37.955-30.07,62.816c-0.083,0.717-0.192,1.086-0.257,1.255c-0.177,0.04-0.557,0.097-1.307,0.097l-0.131,0
		c-9.673-0.074-17.744-0.109-25.401-0.109c-8.021,0-15.365,0.039-22.449,0.119c-14.815,0.167-26.58,11.996-26.785,26.93
		c-0.069,5.062-0.046,10.195-0.023,15.16l0.019,4.844c0.019,6.998,3.541,11.209,9.42,11.265l0.112,0
		c4.668,0,9.671-3.028,9.712-11.525c0.013-2.733,0.009-5.467,0.004-8.201c-0.006-3.448-0.012-6.896,0.019-10.344
		c0.05-5.712,3.154-8.799,8.975-8.928c1.021-0.022,2.04-0.027,3.062-0.027l276.178,0.013l58.893-0.005
		c18.258,0,36.519,0.005,54.777,0.022c6.649,0.006,9.627,2.966,9.656,9.594c0.01,2.406,0.005,4.813-0.001,7.22
		c-0.009,3.876-0.018,7.883,0.042,11.838c0.092,6.02,3.877,10.171,9.417,10.33l0.308,0.005c5.629,0,9.446-4.247,9.499-10.567
		C481.047,486.282,481.105,479.202,480.98,472.166z M333.332,443.85c0.044,0.548,0.027,0.889,0.002,1.085
		c-0.238,0.052-0.703,0.116-1.556,0.116c-0.001,0-0.002,0-0.003,0c-14.44-0.07-28.624-0.079-39.367-0.079
		c-6.124,0-12.249,0.004-18.374,0.007c-5.04,0.003-10.082,0.005-15.122,0.006l-3.249-0.015c-6.246,0-12.492-0.005-18.739-0.01
		c-6.247-0.005-12.495-0.01-18.743-0.01c-15.219,0-26.848,0.033-37.709,0.106l-0.123,0c-1.092,0-1.621-0.103-1.852-0.173
		c-0.038-0.209-0.077-0.652,0.005-1.476c0.319-3.182,0.194-6.345,0.073-9.404l-0.031-0.781c-0.216-5.655-3.895-9.516-9.372-9.836
		c-0.231-0.014-0.457-0.02-0.679-0.02c-5.156,0-8.806,3.656-9.3,9.314c-0.338,3.862-0.334,7.767-0.303,11.436
		c0.004,0.441-0.024,0.728-0.053,0.903c-0.142,0.02-0.358,0.039-0.674,0.039c-0.002,0-0.005,0-0.006,0
		c-5.404-0.069-11.014-0.103-17.149-0.103c-4.358,0-8.716,0.017-13.144,0.046c-0.499,0-0.824-0.035-1.025-0.07
		c-0.02-0.249-0.022-0.681,0.064-1.381c5.261-43.071,39.533-65.104,67.283-70.885c0.034-0.007,0.132-0.024,0.3-0.024
		c0.859,0,1.916,0.39,2.365,0.754c14.7,11.943,36.284,18.792,59.216,18.791c18.868-0.001,37.15-4.712,50.157-12.926
		c0.313-0.198,0.642-0.378,0.971-0.561c0.998-0.553,2.128-1.18,3.115-2.197c2.374-2.451,4.897-3.592,7.939-3.592
		c1.73,0,3.681,0.355,5.967,1.085c23.827,7.609,41.244,21.486,51.766,41.247c3.269,6.139,4.954,13.132,6.738,20.536
		c0.731,3.033,1.486,6.165,2.358,9.221c-10.633-0.039-21.249-0.045-31.923,0.005c-0.106,0-0.194-0.004-0.266-0.01
		c-0.015-0.121-0.029-0.286-0.031-0.504l-0.018-1.959c-0.027-3.19-0.056-6.488-0.218-9.759c-0.29-5.833-4.177-9.539-9.882-9.346
		c-5.475,0.187-9.08,3.935-9.406,9.782C333.167,436.133,333.02,439.986,333.332,443.85z M40.45,500.452L40.45,500.452l0,0.004
		L40.45,500.452z"/>
	<path d="M78.378,159.463c1.049,1.083,1.258,1.719,0.632,3.843c-6.059,20.513-9.266,42.008-9.806,65.711
		c-0.714,31.333,3.032,59.045,11.441,84.672c0.08,0.412-0.201,1.461-0.484,1.809c-2.397,2.943-5.106,5.796-7.727,8.555
		c-0.707,0.745-1.414,1.489-2.117,2.237c-6.462,6.874-9.393,15.263-8.71,24.933c0.815,11.526,8.758,22.059,19.316,25.614
		c2.789,0.939,5.607,1.415,8.379,1.415c7.645,0,14.843-3.585,20.813-10.365c0.55-0.625,1.091-1.26,1.633-1.896
		c1.546-1.816,3.005-3.531,4.611-4.919c0.154-0.106,0.708-0.304,1.22-0.304c0.056,0,0.096,0.003,0.121,0.005
		c2.734,1.066,5.369,2.299,8.159,3.603c1.96,0.916,3.986,1.864,6.033,2.738c1.765,0.755,3.499,1.138,5.155,1.138
		c3.823,0,7.017-2.106,8.543-5.634c2.25-5.205-0.063-10.342-5.894-13.088c-1.953-0.92-3.916-1.821-5.878-2.723
		c-4.389-2.016-8.928-4.102-13.243-6.352c-2.128-1.11-4.088-1.649-5.991-1.649c-3.202,0-6.007,1.496-8.577,4.574
		c-3.865,4.629-7.541,8.783-11.238,12.699c-1.687,1.786-3.668,2.731-5.73,2.731c-2.745,0-5.208-1.674-6.756-4.594
		c-2.521-4.75-1.942-10.018,1.549-14.091c0.395-0.462,0.789-0.93,1.182-1.399c1.662-1.978,3.232-3.848,5.025-5.277
		c9.865-7.864,12.147-16.771,7.875-30.743c-13.421-43.906-13.117-90.435,0.905-138.293c1.719-5.863,0.746-10.317-3.151-14.44
		c-4.226-4.472-8.238-9.297-11.985-13.857c-3.517-4.279-3.984-8.787-1.429-13.78c1.53-2.989,3.948-4.703,6.632-4.703
		c2.118,0,4.281,1.077,6.09,3.032c4.405,4.763,8.002,8.801,11.323,12.71c3.969,4.673,8.558,5.602,14.145,2.715
		c23.286-12.031,49.702-20.47,80.756-25.801c3.697-0.635,13.515-2.32,12.061-11.401c-0.477-2.979-2.48-7.977-10.532-7.977
		c-1.432,0-3,0.145-4.794,0.446c-29.921,5.001-56.433,13.149-80.96,24.891c-0.577-0.648-1.146-1.289-1.71-1.925
		c-2.358-2.659-4.585-5.171-6.954-7.636c-5.214-5.423-12.025-8.408-19.18-8.408c-7.696,0-15.113,3.55-20.347,9.739
		c-9.728,11.504-9.861,28.343-0.315,40.039C71.68,151.989,74.855,155.824,78.378,159.463z"/>
	<path d="M305.395,110.095c31.281,4.966,60.292,14.364,86.226,27.935c2.01,1.051,3.873,1.562,5.698,1.562
		c2.974,0,5.696-1.399,8.092-4.158l0.583-0.671c3.67-4.228,7.466-8.601,11.374-12.674c1.671-1.74,3.575-2.66,5.509-2.66
		c2.409,0,4.645,1.415,6.295,3.984c2.95,4.588,2.533,10.366-1.062,14.722c-3.878,4.699-8.274,10.024-12.9,14.9
		c-5.094,5.369-3.929,10.758-2.609,14.344c7.264,19.739,11.124,41.837,11.799,67.557c0.767,29.297-2.747,55.542-10.742,80.233
		c-1.457,4.5-0.65,8.453,2.467,12.085c0.688,0.803,1.383,1.603,2.079,2.404c3.344,3.849,6.801,7.829,9.439,12.065
		c1.873,3.006,3.078,6.957,3.145,10.312c0.076,3.859-2.074,6.857-5.9,8.224c-0.839,0.3-1.643,0.452-2.39,0.452
		c-2.082,0-4.078-1.185-6.281-3.729c-2.085-2.409-4.243-4.803-6.33-7.118c-1.605-1.781-3.212-3.563-4.796-5.363
		c-3.562-4.047-8.059-4.969-12.966-2.578c-4.357,2.122-8.85,4.188-13.195,6.187c-1.737,0.799-3.474,1.597-5.208,2.402
		c-5.953,2.763-8.341,7.714-6.234,12.919c1.47,3.629,4.733,5.796,8.727,5.796c1.597,0,3.255-0.345,4.928-1.025l0.645-0.262
		c3.949-1.604,8.033-3.263,11.911-5.338c0.819-0.438,1.16-0.46,1.214-0.463c0.004,0.001,0.304,0.11,0.944,0.918
		c2.401,3.028,5.084,5.887,7.627,8.524c5.453,5.656,11.763,8.524,18.757,8.524c1.53,0,3.108-0.142,4.688-0.422
		c9.606-1.699,17.574-8.385,21.313-17.886c4.065-10.325,2.536-21.737-4.088-30.526c-1.514-2.01-3.116-3.964-4.667-5.854
		c-1.815-2.213-3.691-4.502-5.366-6.814c-0.373-0.516-0.622-1.728-0.491-2.401c0.885-4.561,1.91-9.201,2.901-13.688
		c1.699-7.689,3.455-15.641,4.602-23.606c4.912-34.154,3.115-68.453-5.343-101.945c-0.441-1.748-1.067-3.493-1.672-5.179
		c-1.137-3.167-2.312-6.441-1.755-8.622c0.682-2.666,3.486-5.398,6.199-8.04c1.126-1.097,2.291-2.232,3.353-3.402
		c6.003-6.619,8.843-14.533,8.441-23.526c-0.525-11.767-8.282-22.659-18.864-26.486c-2.937-1.062-5.91-1.601-8.838-1.601
		c-7.533,0-14.746,3.569-20.86,10.32c-1.869,2.064-3.708,4.163-5.488,6.193c-0.301,0.343-0.601,0.685-0.9,1.026
		c-3.23-1.296-6.441-2.633-9.565-3.934c-8.846-3.683-17.203-7.162-26.069-9.859c-13.04-3.966-26.509-7.119-39.534-10.168
		c-3.468-0.812-6.935-1.623-10.397-2.451c-1.119-0.267-2.225-0.402-3.29-0.402c-5.222,0-9.233,3.307-9.981,8.23
		C295.756,104.422,299.55,109.167,305.395,110.095z"/>
	<path d="M345.095,477.387c-1.153-0.273-2.246-0.308-3.069-0.308c-0.412,0-0.826,0.011-1.238,0.022
		c-0.354,0.009-0.708,0.019-1.064,0.019l-101.679-0.003c-49.64,0-99.286,0.002-148.926,0.007c-0.288,0-0.579-0.006-0.871-0.012
		c-0.337-0.007-0.675-0.013-1.012-0.013c-0.817,0-1.898,0.034-3.019,0.298c-5.121,1.205-8.006,4.935-7.717,9.978
		c0.298,5.227,3.637,8.569,8.93,8.939c0.91,0.063,1.792,0.072,2.458,0.072l1.943-0.009l124.374,0.007
		c26.259,0.004,52.516,0.005,78.776,0.005l44.207-0.001c0.551,0,1.102,0.005,1.654,0.011c0.571,0.005,1.142,0.011,1.712,0.011
		c0.002,0,0.005,0,0.006,0c1.334,0,2.368-0.03,3.349-0.1c5.204-0.365,8.538-3.704,8.919-8.931
		C353.196,482.355,350.305,478.62,345.095,477.387z"/>
	<path d="M448.644,165.971c6.153,22.353,9.225,45.47,9.129,68.708c-0.05,12.1-0.858,24.449-1.641,36.392
		c-0.317,4.84-0.645,9.844-0.919,14.775c-0.537,9.691,5.068,11.647,8.456,11.95c0.368,0.033,0.727,0.049,1.078,0.049
		c5.479,0,9.182-3.912,9.665-10.209c0.992-12.941,1.906-25.723,2.574-35.056l0.537-7.47l-0.004-0.161
		c-0.851-31.601-2.941-57.973-10.368-83.961c-2.154-7.534-6.394-9.115-9.572-9.115c-1.054,0-2.167,0.182-3.309,0.542
		C452.251,153.052,445.874,155.912,448.644,165.971z"/>
	<path d="M218.762,36.304c3.097-0.267,6.26-0.47,9.566-0.672l-1.276,1.487c-5.384,6.268-10.472,12.193-15.579,18.101
		c-2.276,2.634-5.715,6.614-2.899,12.234c2.773,5.533,7.946,5.533,9.646,5.533c0.664,0,1.371-0.033,2.226-0.103
		c9.705-0.797,20.133-1.626,31.88-2.534c3.961-0.306,6.885-1.545,8.689-3.682c1.541-1.827,2.193-4.164,1.936-6.948
		c-0.497-5.402-4.47-8.626-10.627-8.626c-0.444,0-0.905,0.016-1.379,0.05c-3.652,0.261-7.303,0.549-11.191,0.858
		c1.118-1.283,2.238-2.563,3.359-3.843c4.55-5.194,9.253-10.564,13.631-16.096c2.303-2.911,3.513-7.484,2.875-10.874
		c-0.365-1.94-2.011-6.452-9.394-6.452c-0.516,0-1.056,0.023-1.608,0.067c-3.931,0.314-7.865,0.61-11.798,0.906
		c-6.595,0.498-13.415,1.012-20.125,1.603c-3.892,0.343-6.775,1.662-8.566,3.92c-1.517,1.912-2.11,4.376-1.718,7.124
		C207.196,33.861,211.863,36.901,218.762,36.304z"/>
	<path d="M170.732,59.841c-2.075,2.775-3.902,5.315-5.486,8.117c-1.546,2.736-2.059,7.53-0.191,10.505
		c1.71,2.726,5.845,4.354,8.853,4.354c0.267,0,0.528-0.012,0.778-0.036c6.042-0.573,12.076-1.616,17.913-2.624
		c1.428-0.247,2.856-0.493,4.284-0.733c3.03-0.509,5.534-2.001,7.051-4.199c1.393-2.02,1.878-4.549,1.366-7.12
		c-1.069-5.366-4.997-8.26-10.746-7.77c1.943-2.613,3.762-5.159,5.308-7.876c1.49-2.616,2.109-7.167,0.567-10.255
		c-1.577-3.153-6.25-5.159-9.25-4.861c-7.761,0.771-15.34,2.176-22.67,3.534c-2.826,0.524-5.048,1.902-6.425,3.984
		c-1.371,2.074-1.769,4.632-1.153,7.399C162.033,57.205,165.588,59.98,170.732,59.841z"/>
	<path d="M122.934,83.998c-0.583,1.394-1.117,2.77-1.552,4.201c-1.019,3.351-0.519,6.736,1.371,9.285
		c1.709,2.305,4.357,3.626,7.269,3.626c1.106,0,2.231-0.189,3.344-0.563c7.104-2.384,13.118-4.933,18.388-7.794
		c3.322-1.804,4.85-7.04,4.636-9.971c-0.326-4.449-3.855-7.591-8.639-7.751c0.528-1.245,1.016-2.476,1.429-3.744
		c1.095-3.358,0.633-6.787-1.269-9.407c-1.714-2.362-4.38-3.716-7.316-3.716c-1.042,0-2.103,0.171-3.152,0.508
		c-6.05,1.944-11.68,4.492-17.887,7.38c-4.437,2.064-6.26,6.704-4.538,11.543C116.349,81.339,119.202,83.626,122.934,83.998z"/>
	<path d="M460.195,302.608c-2.765,0.037-5.482,1.278-7.457,3.405c-1.962,2.114-2.99,4.894-2.822,7.629
		c0.329,5.305,5.066,9.787,10.346,9.787c0.197,0,0.393-0.006,0.59-0.019c5.61-0.361,10.026-5.175,9.843-10.729
		c-0.181-5.555-4.831-10.074-10.366-10.074L460.195,302.608z"/>
	<path d="M370.687,476.431c-5.516-0.356-10.51,4.092-10.995,9.614c-0.485,5.523,3.85,10.621,9.465,11.132
		c0.313,0.028,0.623,0.042,0.931,0.042c5.537,0,10.119-4.348,10.431-9.9C380.825,481.877,376.231,476.789,370.687,476.431z"/>
	<path d="M231.043,311.784c-1.615,1.988-2.343,4.412-2.049,6.827c0.327,2.684,1.882,5.198,4.378,7.08
		c6.699,5.047,14.168,7.672,22.833,8.023l0.158,0.003c6.851,0,15.717-3.184,22.064-7.924c4.59-3.428,5.707-8.179,3.064-13.033
		c-1.654-3.039-4.628-4.853-7.954-4.853c-2.072,0-4.148,0.703-6.001,2.034c-8.045,5.776-15.175,5.802-23.054,0.068
		c-1.93-1.405-3.944-2.117-5.985-2.117C236.54,307.891,233.659,308.566,231.043,311.784z M256.364,330.467L256.364,330.467
		L256.364,330.467L256.364,330.467z"/>
	<path d="M210.316,269.872c2.793,1.636,5.718,2.784,8.815,4.001c1.307,0.513,2.647,1.039,4.012,1.618l1.255,0.533l1.259-0.522
		c1.364-0.566,2.715-1.081,4.042-1.589c3.195-1.221,6.215-2.375,9.12-4.041c2.214-1.269,3.742-3.225,4.304-5.51
		c0.602-2.446,0.082-5.126-1.462-7.547c-1.896-2.973-4.643-4.611-7.731-4.611c-1.745,0-3.476,0.528-5.146,1.568
		c-3.099,1.931-5.446,1.914-8.63-0.053c-1.626-1.004-3.329-1.514-5.057-1.514c-3.116,0-5.974,1.705-7.839,4.678
		c-1.453,2.316-1.932,4.907-1.346,7.296C206.485,266.524,208.049,268.545,210.316,269.872z"/>
	<path d="M272.901,269.664c2.883,1.71,6.018,2.965,9.05,4.179c1.312,0.525,2.645,1.058,3.987,1.639l1.245,0.539l1.259-0.506
		c1.359-0.547,2.727-1.046,4.05-1.528c3.155-1.151,6.137-2.238,8.959-3.906c2.227-1.317,3.775-3.348,4.356-5.72
		c0.624-2.539,0.128-5.289-1.395-7.744c-1.74-2.806-4.492-4.416-7.55-4.416c-1.83,0-3.717,0.579-5.46,1.674
		c-2.989,1.879-5.136,1.884-8.047,0.004c-1.698-1.096-3.552-1.676-5.361-1.676c-3.028,0-5.736,1.537-7.626,4.328
		c-1.623,2.398-2.212,5.083-1.658,7.561C269.224,266.386,270.711,268.365,272.901,269.664z"/>
</g>
</svg>
